<svg xmlns="http://www.w3.org/2000/svg" height="48" width="48"><path d="M24 35.5Q27.95 35.5 30.725 32.725Q33.5 29.95 33.5 26Q33.5 22.05 30.725 19.275Q27.95 16.5 24 16.5Q20.05 16.5 17.275 19.275Q14.5 22.05 14.5 26Q14.5 29.95 17.275 32.725Q20.05 35.5 24 35.5ZM24 32.5Q21.3 32.5 19.4 30.6Q17.5 28.7 17.5 26Q17.5 23.3 19.4 21.4Q21.3 19.5 24 19.5Q26.7 19.5 28.6 21.4Q30.5 23.3 30.5 26Q30.5 28.7 28.6 30.6Q26.7 32.5 24 32.5ZM36 19.5Q36.65 19.5 37.075 19.075Q37.5 18.65 37.5 18Q37.5 17.35 37.075 16.925Q36.65 16.5 36 16.5Q35.35 16.5 34.925 16.925Q34.5 17.35 34.5 18Q34.5 18.65 34.925 19.075Q35.35 19.5 36 19.5ZM7 42Q5.8 42 4.9 41.1Q4 40.2 4 39V13.35Q4 12.15 4.9 11.25Q5.8 10.35 7 10.35H14.35L17.55 6.55Q17.8 6.3 18.075 6.15Q18.35 6 18.7 6H29.3Q29.65 6 29.925 6.15Q30.2 6.3 30.45 6.55L33.65 10.35H41Q42.2 10.35 43.1 11.25Q44 12.15 44 13.35V39Q44 40.2 43.1 41.1Q42.2 42 41 42ZM41 39Q41 39 41 39Q41 39 41 39V13.35Q41 13.35 41 13.35Q41 13.35 41 13.35H32.25L28.6 9H19.4L15.75 13.35H7Q7 13.35 7 13.35Q7 13.35 7 13.35V39Q7 39 7 39Q7 39 7 39ZM24 26.2Q24 26.2 24 26.2Q24 26.2 24 26.2Q24 26.2 24 26.2Q24 26.2 24 26.2Q24 26.2 24 26.2Q24 26.2 24 26.2Q24 26.2 24 26.2Q24 26.2 24 26.2Z"/></svg>